<svg width="163" height="118" viewBox="0 0 163 118" fill="none" xmlns="http://www.w3.org/2000/svg">
<path d="M97.2549 85.8139L147.493 56.8098V73.871L97.2549 102.875V85.8139Z" fill="#525252" stroke="#95700C" stroke-width="0.481521"/>
<path d="M66.2262 37.2089L150.446 77.3016L103.165 104.599L17.4681 61.9458L66.2262 37.2089Z" fill="#464646" stroke="#95700C" stroke-width="0.963009"/>
<path d="M64.7463 19.2851L150.443 61.9388V77.294L64.7463 34.6403V19.2851Z" fill="#606060" stroke="#95700C" stroke-width="0.963009"/>
<path d="M17.465 46.5855L103.161 89.2392V104.594L17.465 61.9407V46.5855Z" fill="#808080" stroke="#9E7506" stroke-width="0.963009"/>
<path d="M11.5552 43.1729L97.2517 85.8266V102.888L11.5552 60.2341V43.1729Z" fill="#B28D00" stroke="#95700C" stroke-width="0.963009"/>
<path d="M119.501 79.2539L117.465 80.2821L73.0416 51.1885L75.059 50.1695L119.501 79.2539Z" fill="#DEC152" stroke="#6C4A00" stroke-width="0.16091"/>
<path d="M117.338 82.5576L117.465 80.2805L73.0415 51.1868L72.9152 53.4435L117.338 82.5576Z" fill="#A18313" stroke="#6C4A00" stroke-width="0.16091"/>
<path d="M116.088 84.0476C112.81 81.8432 111.419 78.6544 112.98 76.9249C114.541 75.1954 118.465 75.5807 121.743 77.7852C123.382 78.8874 124.549 80.2357 125.112 81.5247C125.674 82.8137 125.632 84.0432 124.851 84.9079C123.29 86.6372 119.366 86.2521 116.088 84.0476Z" fill="#BA2216"/>
<path d="M116.088 84.0477C112.81 81.8432 111.419 78.6544 112.98 76.9249C114.541 75.1954 110.76 79.5325 114.535 80.6969C116.821 81.4021 118.1 84.1432 119.391 84.7003C124.297 86.8171 125.632 84.043 124.851 84.9077C123.29 86.637 119.367 86.2518 116.089 84.0474L116.088 84.0477Z" fill="#880F06"/>
<path d="M116.828 83.5051L114.65 84.1805L75.6821 48.1051L77.8409 47.4358L116.828 83.5051Z" fill="#DEC152" stroke="#6C4A00" stroke-width="0.16091"/>
<path d="M114.146 86.403L114.65 84.1788L75.6823 48.1035L75.1825 50.3077L114.146 86.403Z" fill="#A18313" stroke="#6C4A00" stroke-width="0.16091"/>
<path d="M112.666 87.6647C109.8 84.9458 108.958 81.57 110.785 80.1242C112.612 78.6784 116.417 79.7108 119.283 82.4296C120.716 83.789 121.643 85.3127 121.983 86.6773C122.323 88.0419 122.077 89.2472 121.163 89.97C119.336 91.4157 115.532 90.3835 112.666 87.6647Z" fill="#BA2216"/>
<path d="M112.666 87.6646C109.8 84.9458 108.958 81.57 110.785 80.1242C112.612 78.6784 108.163 82.3263 111.691 84.1022C113.828 85.1778 114.634 88.0934 115.814 88.8574C120.299 91.7604 122.077 89.2469 121.164 89.9697C119.336 91.4154 115.532 90.3832 112.666 87.6644L112.666 87.6646Z" fill="#880F06"/>
<path d="M131.275 71.4711L129.423 72.8028L81.022 50.9566L82.8569 49.6369L131.275 71.4711Z" fill="#DEC152" stroke="#6C4A00" stroke-width="0.16091"/>
<path d="M129.65 75.0705L129.423 72.8012L81.0216 50.955L81.2472 53.2039L129.65 75.0705Z" fill="#A18313" stroke="#6C4A00" stroke-width="0.16091"/>
<path d="M128.647 76.7364C125.067 75.0675 123.197 72.1333 124.471 70.1824C125.745 68.2315 129.681 68.0033 133.261 69.6722C135.052 70.5066 136.414 71.6575 137.17 72.8435C137.926 74.0296 138.075 75.2508 137.437 76.2262C136.163 78.1769 132.228 78.4053 128.647 76.7364Z" fill="#BA2216"/>
<path d="M128.647 76.7365C125.067 75.0675 123.197 72.1333 124.471 70.1825C125.745 68.2316 122.683 73.103 126.593 73.6673C128.961 74.0092 130.65 76.5186 132.012 76.8685C137.186 78.1984 138.075 75.2506 137.438 76.2259C136.164 78.1767 132.228 78.4051 128.648 76.7361L128.647 76.7365Z" fill="#880F06"/>
<path d="M110.891 89.4095L108.659 89.8758L73.2786 50.276L75.491 49.8139L110.891 89.4095Z" fill="#DEC152" stroke="#6C4A00" stroke-width="0.16091"/>
<path d="M107.947 92.0407L108.659 89.8742L73.2789 50.2744L72.5729 52.4215L107.947 92.0407Z" fill="#A18313" stroke="#6C4A00" stroke-width="0.16091"/>
<path d="M106.354 93.1567C103.758 90.1789 103.24 86.7386 105.195 85.4721C107.151 84.2056 110.841 85.5933 113.437 88.571C114.735 90.0599 115.513 91.6644 115.723 93.0551C115.933 94.4457 115.574 95.6224 114.596 96.2555C112.64 97.5218 108.95 96.1344 106.354 93.1567Z" fill="#BA2216"/>
<path d="M106.354 93.1566C103.758 90.1789 103.24 86.7386 105.195 85.4721C107.151 84.2056 102.376 87.4163 105.721 89.518C107.747 90.7909 108.273 93.7696 109.376 94.6419C113.566 97.9561 115.574 95.6221 114.596 96.2553C112.64 97.5216 108.95 96.1341 106.355 93.1564L106.354 93.1566Z" fill="#880F06"/>
<path d="M123.928 76.3198L121.892 77.348L77.4684 48.2543L79.4858 47.2354L123.928 76.3198Z" fill="#DEC152" stroke="#6C4A00" stroke-width="0.16091"/>
<path d="M121.765 79.6234L121.892 77.3463L77.4682 48.2527L77.342 50.5093L121.765 79.6234Z" fill="#A18313" stroke="#6C4A00" stroke-width="0.16091"/>
<path d="M120.515 81.1135C117.237 78.9091 115.845 75.7202 117.407 73.9908C118.968 72.2613 122.891 72.6466 126.169 74.851C127.809 75.9532 128.976 77.3016 129.539 78.5906C130.101 79.8796 130.059 81.1091 129.278 81.9738C127.716 83.7031 123.793 83.3179 120.515 81.1135Z" fill="#BA2216"/>
<path d="M120.515 81.1135C117.237 78.9091 115.845 75.7203 117.407 73.9908C118.968 72.2613 115.187 76.5983 118.962 77.7627C121.248 78.468 122.527 81.2091 123.818 81.7662C128.723 83.883 130.059 81.1089 129.278 81.9735C127.717 83.7028 123.793 83.3177 120.515 81.1132L120.515 81.1135Z" fill="#880F06"/>
<path d="M61.793 17.5629L147.49 56.8039L97.2517 85.8081L11.5552 43.1544L61.793 17.5629Z" fill="#E8B800" stroke="#95700C" stroke-width="0.963009"/>
<path d="M11.5552 51.6884L97.2517 90.9295V97.754L11.5552 56.8066V51.6884Z" fill="#653E10"/>
<path d="M11.4659 42.7264L28.6466 34.7809L114.503 75.1511L97.4692 85.3888L11.4659 42.7264Z" fill="#DCB005"/>
<path d="M103.165 89.2264L151.119 61.5407V77.8265L103.165 105.512V89.2264Z" fill="#B6B6B6" stroke="#95700C" stroke-width="0.45961"/>
<path d="M92.8458 44.1801C92.8458 52.6405 81.2596 59.499 66.9676 59.499C52.6755 59.499 41.0894 52.6405 41.0894 44.1801C41.0894 35.7196 52.6755 28.8611 66.9676 28.8611C81.2596 28.8611 92.8458 35.7196 92.8458 44.1801Z" fill="#AD6D00"/>
<path d="M90.717 44.1791C90.717 51.9425 80.0856 58.236 66.9712 58.236C53.8568 58.236 43.2253 51.9425 43.2253 44.1791C43.2253 36.4157 53.8568 30.1222 66.9712 30.1222C80.0856 30.1222 90.717 36.4157 90.717 44.1791Z" fill="#D08300"/>
<path d="M75.3811 37.3075L72.7545 37.6168L71.8266 39.2667L70.3672 37.66L67.6555 37.447L69.3801 36.1447L68.632 34.3632L71.1573 35.1651L73.4067 34.277L73.2428 36.075L75.3811 37.3075Z" fill="#D46B00"/>
<path d="M66.9051 36.4299L64.2786 36.7392L63.3506 38.3891L61.8912 36.7823L59.1795 36.5694L60.9041 35.2671L60.1561 33.4856L62.6813 34.2874L64.9308 33.3994L64.7669 35.1973L66.9051 36.4299Z" fill="#D46B00"/>
<path d="M60.0622 37.3606L57.4357 37.6699L56.5077 39.3198L55.0483 37.7131L52.3366 37.5001L54.0612 36.1978L53.3132 34.4163L55.8384 35.2182L58.0878 34.3302L57.9239 36.1281L60.0622 37.3606Z" fill="#D46B00"/>
<path d="M55.5224 42.3074L52.8958 42.6167L51.9679 44.2666L50.5085 42.6598L47.7968 42.4469L49.5214 41.1446L48.7733 39.3631L51.2986 40.165L53.548 39.2769L53.3841 41.0749L55.5224 42.3074Z" fill="#D46B00"/>
<path d="M57.1048 48.1318L54.4783 48.4411L53.5503 50.091L52.0909 48.4842L49.3792 48.2713L51.1038 46.969L50.3558 45.1875L52.881 45.9894L55.1304 45.1013L54.9665 46.8992L57.1048 48.1318Z" fill="#D46B00"/>
<path d="M63.4983 51.7488L60.8718 52.0581L59.9438 53.708L58.4844 52.1012L55.7727 51.8883L57.4973 50.586L56.7493 48.8045L59.2745 49.6064L61.524 48.7183L61.3601 50.5162L63.4983 51.7488Z" fill="#D46B00"/>
<path d="M64.8352 55.1137C64.8352 54.9184 64.9827 54.6506 65.163 54.5184C65.4495 54.3083 65.4264 54.1827 64.9797 53.5205C64.6986 53.1038 64.2097 52.081 63.8932 51.2476C62.815 48.4082 61.3443 45.9177 60.3314 45.2157C59.8789 44.9021 59.2132 44.3289 58.8523 43.942C58.1111 43.1475 57.1861 41.6159 57.349 41.453C57.4082 41.3938 58.3929 41.6111 59.5375 41.9358C60.682 42.2605 62.0189 42.5799 62.5082 42.6455C62.9976 42.7112 64.184 43.1786 65.1448 43.6842C67.4659 44.9058 68.01 45.0011 69.4945 44.4457C70.1553 44.1984 71.1226 43.9962 71.6442 43.9962C73.4879 43.9962 73.7511 43.5391 72.4655 42.5696C71.4926 41.8359 71.2336 41.5355 70.682 40.5015L70.2613 39.7126L73.7715 39.7057C77.008 39.6993 77.3746 39.6578 78.4723 39.1735C79.1271 38.8845 80.2294 38.5835 80.9219 38.5046L82.1808 38.3609L81.8251 38.9631C81.6295 39.2943 80.8405 40.2902 80.0719 41.1763C79.3033 42.0623 78.6174 43.0144 78.5477 43.2921C78.473 43.5899 78.0792 43.9713 77.588 44.222C77.1299 44.4556 76.6502 44.8429 76.5219 45.0825C76.3937 45.3221 75.8561 46.0053 75.3274 46.6006C74.7986 47.196 74.3022 47.9494 74.2241 48.2748C73.9859 49.2688 73.5353 49.9976 72.199 51.5502C70.6347 53.3677 69.7405 53.9533 68.5294 53.9533C67.4883 53.9533 66.8538 54.2384 66.2847 54.9618C65.8186 55.5544 64.8352 55.6575 64.8352 55.1137Z" fill="#C46600"/>
<path d="M77.4557 63.1057L78.3777 62.2346L83.3862 64.839L82.4641 65.71L77.4557 63.1057Z" fill="#AD6D00"/>
<path d="M79.6496 61.9034L80.5717 61.0324L85.5801 63.6367L84.658 64.5078L79.6496 61.9034Z" fill="#AD6D00"/>
<path d="M81.7972 60.7451L82.7193 59.874L87.7277 62.4783L86.8056 63.3494L81.7972 60.7451Z" fill="#AD6D00"/>
<path d="M83.8445 59.4327L84.7666 58.5616L89.775 61.166L88.8529 62.037L83.8445 59.4327Z" fill="#AD6D00"/>
<path d="M86.0385 58.2305L86.9605 57.3594L91.9689 59.9638L91.0468 60.8348L86.0385 58.2305Z" fill="#AD6D00"/>
<path d="M88.186 57.0721L89.1081 56.201L94.1165 58.8054L93.1944 59.6764L88.186 57.0721Z" fill="#AD6D00"/>
<path d="M90.3336 55.9137L91.2557 55.0426L96.2641 57.647L95.342 58.5181L90.3336 55.9137Z" fill="#AD6D00"/>
<path d="M92.5276 54.7115L93.4496 53.8404L98.458 56.4448L97.536 57.3158L92.5276 54.7115Z" fill="#AD6D00"/>
<path d="M94.6751 53.5531L95.5972 52.6821L100.606 55.2864L99.6835 56.1574L94.6751 53.5531Z" fill="#AD6D00"/>
<path d="M96.8305 52.2629L97.7526 51.3919L102.761 53.9962L101.839 54.8673L96.8305 52.2629Z" fill="#AD6D00"/>
<path d="M98.9293 50.9434L99.8514 50.0723L104.86 52.6767L103.938 53.5478L98.9293 50.9434Z" fill="#AD6D00"/>
<path d="M101.062 49.6752L101.984 48.8041L106.992 51.4085L106.07 52.2795L101.062 49.6752Z" fill="#AD6D00"/>
<path d="M103.204 48.4801L104.126 47.6091L109.135 50.2134L108.212 51.0845L103.204 48.4801Z" fill="#AD6D00"/>
<path d="M105.403 47.3146L106.325 46.4435L111.334 49.0479L110.411 49.9189L105.403 47.3146Z" fill="#AD6D00"/>
<path d="M107.551 46.1562L108.473 45.2851L113.481 47.8895L112.559 48.7605L107.551 46.1562Z" fill="#AD6D00"/>
<path d="M88.3952 72.2143L88.6643 71.96L90.1263 72.7203L89.8571 72.9745L88.3952 72.2143Z" fill="#AD6D00"/>
<path d="M89.0356 71.8635L89.3048 71.6092L90.7668 72.3694L90.4976 72.6237L89.0356 71.8635Z" fill="#AD6D00"/>
<path d="M89.6625 71.5253L89.9317 71.271L91.3936 72.0312L91.1245 72.2855L89.6625 71.5253Z" fill="#AD6D00"/>
<path d="M90.2601 71.1422L90.5293 70.888L91.9912 71.6482L91.7221 71.9024L90.2601 71.1422Z" fill="#AD6D00"/>
<path d="M90.9006 70.7913L91.1697 70.537L92.6317 71.2972L92.3625 71.5515L90.9006 70.7913Z" fill="#AD6D00"/>
<path d="M91.5274 70.4532L91.7966 70.1989L93.2586 70.9591L92.9894 71.2134L91.5274 70.4532Z" fill="#AD6D00"/>
<path d="M92.1543 70.1151L92.4235 69.8608L93.8854 70.621L93.6163 70.8753L92.1543 70.1151Z" fill="#AD6D00"/>
<path d="M92.7948 69.7641L93.0639 69.5098L94.5259 70.2701L94.2567 70.5243L92.7948 69.7641Z" fill="#AD6D00"/>
<path d="M93.4216 69.426L93.6908 69.1718L95.1527 69.932L94.8836 70.1862L93.4216 69.426Z" fill="#AD6D00"/>
<path d="M94.0508 69.0494L94.32 68.7951L95.7819 69.5553L95.5128 69.8096L94.0508 69.0494Z" fill="#AD6D00"/>
<path d="M94.6635 68.6642L94.9327 68.4099L96.3946 69.1701L96.1254 69.4244L94.6635 68.6642Z" fill="#AD6D00"/>
<path d="M95.2859 68.294L95.5551 68.0397L97.017 68.8L96.7479 69.0542L95.2859 68.294Z" fill="#AD6D00"/>
<path d="M95.9113 67.9452L96.1804 67.6909L97.6424 68.4512L97.3732 68.7054L95.9113 67.9452Z" fill="#AD6D00"/>
<path d="M96.5532 67.6049L96.8224 67.3507L98.2843 68.1109L98.0152 68.3651L96.5532 67.6049Z" fill="#AD6D00"/>
<path d="M97.1801 67.2668L97.4493 67.0126L98.9112 67.7728L98.6421 68.0271L97.1801 67.2668Z" fill="#AD6D00"/>
<path d="M90.1026 73.8199L90.5711 73.3773L93.1157 74.7005L92.6472 75.143L90.1026 73.8199Z" fill="#AD6D00"/>
<path d="M91.2173 73.2091L91.6858 72.7666L94.2303 74.0897L93.7618 74.5322L91.2173 73.2091Z" fill="#AD6D00"/>
<path d="M92.3083 72.6205L92.7768 72.178L95.3214 73.5011L94.8529 73.9437L92.3083 72.6205Z" fill="#AD6D00"/>
<path d="M93.3486 71.9538L93.817 71.5113L96.3616 72.8344L95.8931 73.2769L93.3486 71.9538Z" fill="#AD6D00"/>
<path d="M94.4632 71.343L94.9317 70.9005L97.4762 72.2236L97.0078 72.6662L94.4632 71.343Z" fill="#AD6D00"/>
<path d="M95.5543 70.7545L96.0228 70.3119L98.5674 71.635L98.0989 72.0776L95.5543 70.7545Z" fill="#AD6D00"/>
<path d="M96.6454 70.166L97.1139 69.7234L99.6584 71.0466L99.19 71.4891L96.6454 70.166Z" fill="#AD6D00"/>
<path d="M97.7601 69.5551L98.2285 69.1126L100.773 70.4357L100.305 70.8783L97.7601 69.5551Z" fill="#AD6D00"/>
<path d="M98.8511 68.9666L99.3196 68.5241L101.864 69.8472L101.396 70.2898L98.8511 68.9666Z" fill="#AD6D00"/>
<path d="M99.9462 68.3112L100.415 67.8686L102.959 69.1918L102.491 69.6343L99.9462 68.3112Z" fill="#AD6D00"/>
<path d="M101.013 67.6407L101.481 67.1982L104.026 68.5213L103.557 68.9639L101.013 67.6407Z" fill="#AD6D00"/>
<path d="M102.096 66.9963L102.564 66.5538L105.109 67.8769L104.64 68.3195L102.096 66.9963Z" fill="#AD6D00"/>
<path d="M103.184 66.3892L103.653 65.9467L106.197 67.2698L105.729 67.7124L103.184 66.3892Z" fill="#AD6D00"/>
<path d="M104.302 65.797L104.77 65.3545L107.315 66.6776L106.846 67.1201L104.302 65.797Z" fill="#AD6D00"/>
<path d="M105.393 65.2085L105.861 64.766L108.406 66.0891L107.937 66.5316L105.393 65.2085Z" fill="#AD6D00"/>
<path d="M121.969 46.139L77.0985 73.5635" stroke="#BD7A17" stroke-width="2.06348"/>
<path d="M103.401 89.354L117.33 81.2902L117.27 96.8029L103.41 104.675L103.401 89.354Z" fill="#ACACAC"/>
<path d="M61.5188 17.1163L11.1246 42.3883V59.2901L97.4143 103.768L98.3994 102.986L103.237 105.766L151.169 78.3414L151.072 61.2033L148.427 59.5299L148.508 56.5971L61.5188 17.1163Z" stroke="#903302" stroke-width="2.26013"/>
<path d="M131.425 78.7974L123.007 84.0499C123.81 85.475 124.974 86.8251 126.674 86.6437C129.212 86.3729 131.827 84.0476 131.813 81.2544C131.81 80.6336 131.613 79.3271 131.425 78.7975L131.425 78.7974Z" fill="#7C7C7C"/>
<path d="M131.572 78.5423L123.315 83.7141C124.118 85.1392 125.604 86.006 127.304 85.8246C129.842 85.5539 131.894 83.0675 131.88 80.2743C131.877 79.6535 131.76 79.0719 131.572 78.5423Z" fill="#A8A8A8" stroke="#9E7506" stroke-width="0.252746"/>
<path d="M20.7085 82.8032L22.2947 81.1645L73.8019 94.0892L72.2299 95.7131L20.7085 82.8032Z" fill="#A88D32" stroke="#6C4A00" stroke-width="0.16091"/>
<path d="M21.6685 78.9697L22.2945 81.1627L73.8017 94.0874L73.1813 91.914L21.6685 78.9697Z" fill="#DEC152" stroke="#6C4A00" stroke-width="0.16091"/>
<path d="M22.3605 77.1518C26.1801 78.1599 28.5401 80.7165 27.6318 82.8619C26.7235 85.0074 22.8909 85.9297 19.0711 84.9215C17.1613 84.4175 15.6165 83.5264 14.6625 82.493C13.7086 81.4596 13.3457 80.2841 13.7998 79.2112C14.7081 77.0656 18.5407 76.1437 22.3605 77.1518Z" fill="#BA2216"/>
<path d="M23.3014 84.0343C27.1209 85.0424 28.5411 80.718 27.6328 82.8637C26.7244 85.0093 22.8919 85.9314 19.072 84.9233C17.1622 84.4193 15.6174 83.5281 14.6635 82.4947C13.7095 81.4614 13.0388 79.2101 14.0232 79.833C16.4742 81.3843 19.4103 85.2551 23.1794 84.0725L23.3014 84.0343Z" fill="#8F150B"/>
<path d="M67.8727 99.6336L65.837 100.662L21.4132 71.5682L23.4307 70.5492L67.8727 99.6336Z" fill="#DEC152" stroke="#6C4A00" stroke-width="0.16091"/>
<path d="M65.7094 102.937L65.8368 100.66L21.4131 71.5665L21.2868 73.8232L65.7094 102.937Z" fill="#A18313" stroke="#6C4A00" stroke-width="0.16091"/>
<path d="M64.4599 104.427C61.1818 102.223 59.7903 99.0341 61.3516 97.3046C62.9128 95.5751 66.8362 95.9604 70.1143 98.1649C71.7534 99.2671 72.9208 100.615 73.4833 101.904C74.0459 103.193 74.0034 104.423 73.2227 105.288C71.6612 107.017 67.738 106.632 64.4599 104.427Z" fill="#BA2216"/>
<path d="M64.4599 104.427C61.1818 102.223 59.7903 99.0341 61.3516 97.3046C62.9128 95.5751 59.1317 99.9122 62.9066 101.077C65.1929 101.782 66.4717 104.523 67.7631 105.08C72.6682 107.197 74.0036 104.423 73.2229 105.287C71.6615 107.017 67.7383 106.632 64.4602 104.427L64.4599 104.427Z" fill="#880F06"/>
<path d="M52.1167 47.5327L53.5884 49.5152L37.9847 102.069L36.5131 100.086L52.1167 47.5327Z" fill="#A88D32" stroke="#6C4A00" stroke-width="0.18342"/>
<path d="M51.4096 50.2246L52.9649 51.4628L52.3395 53.5727C52.3395 53.5727 52.5432 51.2964 52.2151 51.9727C52.0721 52.2675 51.34 53.9788 51.2549 53.1761C51.1904 52.5688 50.3047 53.8187 50.3047 53.8187L51.4096 50.2246Z" fill="#390F03"/>
<path d="M55.9056 48.6553L53.5905 49.5135L37.9868 102.067L40.3019 101.209L55.9056 48.6553Z" fill="#DEC152" stroke="#6C4A00" stroke-width="0.18342"/>
<path d="M55.0062 51.4428L53.0287 51.6461L52.4167 53.7599C52.4167 53.7599 53.4735 51.7335 53.3848 52.4799C53.3461 52.8053 53.039 54.6411 53.5439 54.0113C53.9258 53.5348 53.9971 55.065 53.9971 55.065L55.0062 51.4428Z" fill="#390F03"/>
<path d="M51.2078 42.8381C52.5799 39.1337 55.3523 37.0313 57.4001 38.1425C59.448 39.2536 59.9958 43.1576 58.6237 46.862C57.9376 48.7142 56.9015 50.1658 55.7809 51.0158C54.6602 51.8657 53.4552 52.1132 52.4311 51.5576C50.3833 50.4464 49.8356 46.5424 51.2078 42.8381Z" fill="#550000"/>
<path opacity="0.4933" d="M61.337 32.7694C61.4994 39.9472 61.6384 41.5186 58.0622 47.7059C56.959 49.6146 53.5465 44.665 52.1687 45.0414C50.7909 45.4179 51.2111 50.6807 49.9259 47.7597C46.4387 39.8336 53.0442 33.4719 53.8312 31.7309C55.222 28.6548 53.4008 15.9582 53.806 10.0012C54.3989 14.8962 55.6616 17.4632 57.0623 20.244C58.9059 23.9043 61.2254 27.8372 61.337 32.7694Z" fill="#F9CB24"/>
<path opacity="0.6592" d="M61.337 32.7695C61.4994 39.9473 61.6384 41.5187 58.0622 47.7059C57.7864 48.1831 60.3803 43.6424 60.5965 39.9543C60.6546 38.9625 61.4455 33.5508 58.6695 27.6943C56.1583 22.3963 54.7888 16.2562 54.2131 14.3739C53.3563 11.5724 55.6659 28.948 54.7361 31.6162C54.3383 32.7577 51.4208 36.8154 51.1784 37.0776C47.3968 41.1701 51.211 50.6806 49.9258 47.7598C46.4387 39.8338 53.0441 33.4721 53.8311 31.731C55.2219 28.6549 53.4007 15.9583 53.8059 10.0014C54.3988 14.8963 55.6615 17.4634 57.0622 20.2441C58.9059 23.9045 61.2252 27.8375 61.3368 32.7698L61.337 32.7695Z" fill="#FFE800"/>
<path opacity="0.6592" d="M60.9032 33.3754C61.0474 39.7476 61.1708 41.1429 57.996 46.6359C57.7512 47.0595 60.054 43.0284 60.2459 39.754C60.2976 38.8735 60.1004 34.6323 57.6293 29.436C54.8402 23.5712 55.09 18.7151 54.5789 17.0439C53.8182 14.5568 56.5073 30.0687 55.6818 32.4377C55.3286 33.4511 52.7205 37.0383 52.5053 37.2711C49.1479 40.9044 50.0974 49.1819 49.6819 46.3794C48.2453 36.6888 53.541 33.9992 54.2398 32.4534C55.4745 29.7225 53.8576 18.4504 54.2174 13.1619C54.7437 17.5077 55.8648 19.7867 57.1083 22.2556C58.7451 25.5052 60.8041 28.9971 60.9033 33.3757L60.9032 33.3754Z" fill="#FF6300"/>
<path opacity="0.6592" d="M60.1633 36.1533C60.0506 41.342 60.1006 42.4812 57.3198 46.8346C57.1054 47.1704 59.124 43.9746 59.3984 41.3181C59.4722 40.6037 59.4649 37.1465 57.6425 32.8307C55.5855 27.9594 55.964 24.0183 55.6086 22.6406C55.0796 20.59 56.707 33.3049 55.95 35.2019C55.6261 36.0135 53.3751 38.8371 53.1917 39.0189C50.3295 41.853 50.803 48.6206 50.5663 46.3259C49.7476 38.3916 54.1523 36.3947 54.7765 35.1627C55.8794 32.9859 54.9711 23.7587 55.4547 19.4698C55.726 23.0236 56.5556 24.9177 57.4779 26.971C58.692 29.6733 60.2408 32.588 60.1633 36.1533Z" fill="#FF6300"/>
</svg>
