<svg width="26" height="23" viewBox="0 0 26 23" fill="none" xmlns="http://www.w3.org/2000/svg">
<path d="M22.1721 12.0447L13.0102 21.1186L3.84826 12.0447M3.84826 12.0447C3.24395 11.4566 2.76794 10.7498 2.45021 9.96878C2.13248 9.18772 1.97991 8.34934 2.00212 7.50642C2.02432 6.66351 2.22081 5.83432 2.57922 5.07107C2.93763 4.30783 3.45019 3.62706 4.08462 3.07163C4.71905 2.51621 5.46162 2.09816 6.26555 1.84382C7.06949 1.58948 7.91738 1.50434 8.75583 1.59379C9.59429 1.68323 10.4051 1.9453 11.1373 2.36351C11.8695 2.78172 12.5072 3.34701 13.0102 4.02376C13.5153 3.35192 14.1538 2.79157 14.8854 2.3778C15.6171 1.96403 16.4263 1.70574 17.2624 1.6191C18.0985 1.53245 18.9435 1.61931 19.7445 1.87425C20.5455 2.12919 21.2853 2.54671 21.9175 3.10069C22.5497 3.65467 23.0607 4.33317 23.4186 5.09374C23.7766 5.85431 23.9736 6.68057 23.9975 7.52081C24.0214 8.36105 23.8716 9.19717 23.5575 9.97686C23.2434 10.7565 22.7718 11.463 22.1721 12.052" fill="#FFFAFA"/>
<path d="M22.1721 12.0447L13.0102 21.1186L3.84826 12.0447C3.24395 11.4566 2.76794 10.7498 2.45021 9.96878C2.13248 9.18772 1.97991 8.34934 2.00212 7.50643C2.02432 6.66351 2.22081 5.83432 2.57922 5.07107C2.93763 4.30783 3.45019 3.62706 4.08462 3.07163C4.71905 2.51621 5.46162 2.09816 6.26555 1.84382C7.06949 1.58948 7.91738 1.50434 8.75583 1.59379C9.59429 1.68323 10.4051 1.9453 11.1373 2.36351C11.8695 2.78172 12.5072 3.347 13.0102 4.02376C13.5153 3.35192 14.1538 2.79157 14.8854 2.3778C15.6171 1.96403 16.4263 1.70574 17.2624 1.6191C18.0985 1.53245 18.9435 1.61931 19.7445 1.87425C20.5455 2.12919 21.2853 2.54671 21.9175 3.10069C22.5497 3.65467 23.0607 4.33317 23.4186 5.09374C23.7766 5.85431 23.9736 6.68057 23.9975 7.52081C24.0214 8.36105 23.8716 9.19717 23.5575 9.97686C23.2434 10.7565 22.7718 11.463 22.1721 12.052" stroke="#FFFAFA" stroke-width="2.44318" stroke-linecap="round" stroke-linejoin="round"/>
</svg>
