<svg width="26" height="23" viewBox="0 0 26 23" fill="none" xmlns="http://www.w3.org/2000/svg">
<path d="M22.1721 12.4854L13.0102 21.5593L3.84826 12.4854C3.24395 11.8973 2.76794 11.1905 2.45021 10.4095C2.13248 9.6284 1.97991 8.79001 2.00212 7.9471C2.02432 7.10418 2.22081 6.27499 2.57922 5.51175C2.93763 4.7485 3.45019 4.06773 4.08462 3.51231C4.71905 2.95688 5.46162 2.53884 6.26555 2.28449C7.06949 2.03015 7.91738 1.94502 8.75583 2.03446C9.59429 2.1239 10.4051 2.38598 11.1373 2.80419C11.8695 3.2224 12.5072 3.78768 13.0102 4.46444C13.5153 3.79259 14.1538 3.23225 14.8854 2.81848C15.6171 2.40471 16.4263 2.14642 17.2624 2.05977C18.0985 1.97312 18.9435 2.05999 19.7445 2.31492C20.5455 2.56986 21.2853 2.98738 21.9175 3.54136C22.5497 4.09534 23.0607 4.77385 23.4186 5.53442C23.7766 6.29499 23.9736 7.12125 23.9975 7.96148C24.0214 8.80172 23.8716 9.63785 23.5575 10.4175C23.2434 11.1972 22.7718 11.9037 22.1721 12.4927" stroke="#FFFAFA" stroke-width="2.44318" stroke-linecap="round" stroke-linejoin="round"/>
</svg>
