<svg width="34" height="34" viewBox="0 0 34 34" fill="none" xmlns="http://www.w3.org/2000/svg">
<path d="M14.1667 24.0833C19.6435 24.0833 24.0833 19.6435 24.0833 14.1667C24.0833 8.68984 19.6435 4.25 14.1667 4.25C8.68984 4.25 4.25 8.68984 4.25 14.1667C4.25 19.6435 8.68984 24.0833 14.1667 24.0833Z" stroke="#FFFAFA" stroke-width="2.83333" stroke-linecap="round" stroke-linejoin="round"/>
<path d="M29.75 29.75L21.25 21.25" stroke="#FFFAFA" stroke-width="2.83333" stroke-linecap="round" stroke-linejoin="round"/>
<path d="M14.1667 18.4165V18.4205" stroke="#FFFAFA" stroke-width="2.83333" stroke-linecap="round" stroke-linejoin="round"/>
<path d="M14.054 14.2012C14.4106 14.2014 14.7615 14.1118 15.0744 13.9408C15.3873 13.7697 15.6521 13.5227 15.8444 13.2225C16.0368 12.9222 16.1505 12.5784 16.175 12.2227C16.1996 11.8669 16.1343 11.5107 15.9851 11.1869C15.8358 10.863 15.6075 10.5819 15.3211 10.3695C15.0347 10.1571 14.6995 10.0201 14.3463 9.97123C13.9931 9.92237 13.6332 9.96318 13.2999 10.0899C12.9666 10.2166 12.6706 10.4252 12.439 10.6964" stroke="#FFFAFA" stroke-width="2.83333" stroke-linecap="round" stroke-linejoin="round"/>
</svg>
